<?xml version="1.0" encoding="iso-8859-1"?>
<!-- Generator: Adobe Illustrator 19.0.0, SVG Export Plug-In . SVG Version: 6.00 Build 0)  -->
<svg version="1.1" id="Layer_1" xmlns="http://www.w3.org/2000/svg" xmlns:xlink="http://www.w3.org/1999/xlink" x="0px" y="0px"
	 viewBox="0 0 488.2 488.2" style="enable-background:new 0 0 488.2 488.2;" xml:space="preserve">
<circle style="fill:#2A3332;" cx="244.1" cy="244.2" r="244"/>
<path style="fill:#121C1B;" d="M71.3,71.4c95.2-95.2,249.6-95.2,344.8,0s95.2,249.6,0,344.8"/>
<circle style="fill:#F74D19;" cx="244.1" cy="244.2" r="104.8"/>
<path style="fill:#FF7A17;" d="M139.3,244.2c0-57.6,47.2-104.8,104.8-104.8s104.8,47.2,104.8,104.8"/>
<path style="fill:#E0360E;" d="M263.3,229l-36.8,36.8l69.6,69.6c8-4.8,15.2-10.4,22.4-16.8c5.6-5.6,11.2-12.8,15.2-19.2L263.3,229z"
	/>
<circle style="fill:#D3DEE2;" cx="244.1" cy="244.2" r="29.6"/>
<path style="fill:#EBF0F2;" d="M244.1,273.8c-16,0-29.6-13.6-29.6-29.6s12.8-29.6,29.6-29.6"/>
<g>
	<path style="fill:#726C6A;" d="M244.1,448.2c-112.8,0-204-91.2-204-204c0-4,3.2-8,8-8c4,0,8,3.2,8,8c-0.8,104,84,188.8,188,188.8
		c4,0,8,3.2,8,8C252.1,445,248.1,448.2,244.1,448.2z"/>
	<path style="fill:#726C6A;" d="M440.9,252.2c-4,0-8-3.2-8-8c0-104-84.8-188.8-188.8-188.8c-4,0-8-3.2-8-8c0-4,3.2-8,8-8
		c112.8,0,204,92,204,204C448.1,248.2,444.9,252.2,440.9,252.2z"/>
	<path style="fill:#726C6A;" d="M244.1,401c-86.4,0-156.8-70.4-156.8-156.8c0-4,3.2-8,8-8c4,0,8,3.2,8,8
		c0,77.6,63.2,141.6,141.6,141.6c4,0,8,3.2,8,8C252.1,397.8,248.1,401,244.1,401z"/>
	<path style="fill:#726C6A;" d="M392.9,252.2c-4,0-8-3.2-8-8c0-77.6-63.2-141.6-141.6-141.6c-4,0-8-3.2-8-8c0-4,3.2-8,8-8
		c86.4,0,156.8,70.4,156.8,156.8C400.9,248.2,397.7,252.2,392.9,252.2z"/>
</g>
<g>
</g>
<g>
</g>
<g>
</g>
<g>
</g>
<g>
</g>
<g>
</g>
<g>
</g>
<g>
</g>
<g>
</g>
<g>
</g>
<g>
</g>
<g>
</g>
<g>
</g>
<g>
</g>
<g>
</g>
</svg>
